<svg width="16" height="16" viewBox="0 0 16 16" fill="none" xmlns="http://www.w3.org/2000/svg">
<path d="M2.66667 7.81714C2.66667 7.56401 2.85477 7.35481 3.09882 7.3217L3.16667 7.31714L13.1667 7.31714C13.4428 7.31714 13.6667 7.541 13.6667 7.81714C13.6667 8.07027 13.4786 8.27947 13.2345 8.31257L13.1667 8.31714H3.16667C2.89053 8.31714 2.66667 8.09328 2.66667 7.81714Z" fill="#3D3D3D"/>
<path d="M8.78068 4.15514C8.585 3.9603 8.58431 3.64372 8.77915 3.44804C8.95628 3.27015 9.23402 3.25341 9.43008 3.39822L9.48626 3.44652L13.5196 7.46252C13.698 7.64017 13.7142 7.91891 13.5683 8.11496L13.5196 8.17111L9.48629 12.1878C9.29062 12.3826 8.97404 12.382 8.77918 12.1863C8.60204 12.0084 8.58648 11.7306 8.73212 11.5352L8.78065 11.4792L12.458 7.81663L8.78068 4.15514Z" fill="#3D3D3D"/>
</svg>
