<svg xmlns="http://www.w3.org/2000/svg" viewBox="0 0 1134.5 999.44"><defs><style>.a,.b{fill:none;stroke-miterlimit:10;}.a{stroke-width:28px;}.b{stroke-width:26.08px;}</style></defs><path class="a" d="M1281.35,788.57,835.24,894.44A58.49,58.49,0,0,1,764.81,851h0a58.5,58.5,0,0,1,43.41-70.42l446.11-105.88" transform="translate(-188 -35.06)"/><polyline class="a" points="576.33 816.09 487.89 443.44 305 443.68"/><circle cx="701" cy="943.94" r="55.5"/><circle cx="1079" cy="850.94" r="55.5"/><polygon class="b" points="1018.02 581.42 611.22 685.89 491.74 220.66 572.69 92.94 872.78 15.87 1018.02 581.42"/><polyline class="b" points="491.85 221.08 592.58 195.21 566.71 94.48"/><line class="b" x1="583" y1="247.94" x2="845" y2="177.94"/><line class="b" x1="602.42" y1="332.45" x2="864.42" y2="262.45"/><line class="b" x1="621.83" y1="416.96" x2="883.83" y2="346.96"/><line class="b" x1="641.25" y1="501.47" x2="903.25" y2="431.47"/><line class="b" x1="660.67" y1="585.98" x2="922.67" y2="515.98"/><line class="b" x1="69" y1="220.94" x2="389" y2="220.94"/><line class="b" y1="383.94" x2="267" y2="383.94"/><line class="b" x1="69" y1="550.94" x2="389" y2="550.94"/><line class="b" x1="244" y1="898.94" x2="607" y2="898.94"/><line class="b" x1="244" y1="965.94" x2="607" y2="965.94"/></svg>
