<?xml version="1.0" encoding="utf-8"?>
<!-- Generator: Adobe Illustrator 27.5.0, SVG Export Plug-In . SVG Version: 6.00 Build 0)  -->
<svg version="1.1" id="Capa_2" xmlns="http://www.w3.org/2000/svg" xmlns:xlink="http://www.w3.org/1999/xlink" x="0px" y="0px"
	 viewBox="0 0 2122 2122" style="enable-background:new 0 0 2122 2122;" xml:space="preserve">
<path style="fill:#15162B;" d="M1424.471,1581.973c37.827-61.849,57.074-133.215,75.69-202.231
	c2.37-8.797,4.741-17.581,7.145-26.339c19.836-72.253,45.537-154.519,99.69-216.375c48.161-55.014,132.224-98.307,211.449-71.04
	c15.769,5.43,37.101,16.029,49.176,35.691c11.053,18.002,10.746,41.389-0.733,55.608c-9.844,12.195-26.217,17.495-42.053,22.624
	c-3.342,1.084-6.672,2.161-9.932,3.296c-92.136,32.044-147.905,123.946-178.465,195.403c-12.872,30.095-24.003,61.486-34.765,91.844
	c-18.662,52.631-37.958,107.052-66.748,155.578c-45.686,76.991-115.973,139.257-197.912,175.328
	c-61.471,27.06-121.097,32.774-168.501,16.93c-3.212,2.413-6.454,4.784-9.727,7.108c20.214,7.735,42.644,11.597,66.525,11.597
	c36.151,0,75.622-8.85,115.722-26.504c83.83-36.899,155.735-100.599,202.472-179.366c29.289-49.364,48.75-104.253,67.571-157.335
	c10.711-30.212,21.788-61.452,34.536-91.257c29.769-69.606,83.874-159.055,172.57-189.903c3.193-1.111,6.453-2.166,9.727-3.225
	c17.223-5.576,35.035-11.345,46.745-25.851c14.268-17.676,14.875-45.267,1.469-67.097c-13.622-22.18-37.118-33.941-54.428-39.9
	c-83.613-28.789-171.846,16.372-222.207,73.9c-55.544,63.444-81.673,146.984-101.805,220.307c-2.407,8.77-4.782,17.571-7.157,26.38
	c-18.432,68.336-37.489,138.998-74.568,199.622c-27.332,44.691-73.012,91.825-129.838,112.976
	c-2.872,4.539-5.815,9.032-8.827,13.475C1342.214,1683.696,1394.245,1631.393,1424.471,1581.973z"/>
<path style="fill:#A7A9A7;" d="M849.195,1827.871c13.741-83.025,16.839-161.218,9.263-232.901
	c-14.389-1.597-28.342-4.327-41.424-8.315c-33.635-10.253-64.584-27.731-91.257-50.35c-0.977,23.952-2.374,47.793-3.743,71.167
	c-0.116,1.982-0.232,3.965-0.348,5.947c17.407,4.777,34.26,11.138,49.924,20.883c39.348,24.481,66.873,68.204,74.711,113.65
	c6.73,39.027-0.926,79.463-20.093,113.99c-8.863,15.965-20.292,30.507-33.583,43.048c15.989,2.146,25.793,2.836,42.203,3.578
	c-1.231-1.199-1.809-3.002-1.362-4.79C839.633,1879.228,844.92,1853.69,849.195,1827.871z"/>
<path style="fill:#A7A9A7;" d="M1351.371,1277.065c-34.03,0.012-64.359-16.387-89.382-38.333
	c-24.473-21.463-44.604-48.154-56.981-78.353c-11.485-28.021-15.93-58.149-17.994-88.191c-1.157-16.844-0.732-33.857-2.316-50.651
	c-1.446-15.339-5.403-30.344-11.512-44.48c-12.161-28.143-31.149-52.719-44.316-80.38c-3.271-6.874-5.939-13.854-8.042-20.957
	c-27.585,41.767-34.391,103.273-29.955,154.271c0.217,2.477-1.425,4.733-3.849,5.293c-2.436,0.548-4.889-0.755-5.778-3.077
	c-34.056-88.811-73.564-176.628-117.43-261.011c-9.274-17.846-24.134-38.265-42.224-34.204c-7.259,1.632-12.733,7.057-16.046,11.32
	c-7.847,10.102-11.428,23.235-13.671,33.549c-0.777,3.573-1.466,7.152-2.074,10.736c36.204,14.764,65.07,41.672,88.235,75.699
	c24.039,35.311,36.228,77.18,49.996,117.159c15.085,43.803,34.713,86.04,58.468,125.814c27.223,45.581,47.13,87.895,58.865,139.932
	c7.141,31.667,10.371,64.383,8.684,96.808c16.389,32.569,34.346,64.723,51.757,95.9c6.626,11.866,13.26,23.742,19.832,35.676
	c8.938,16.226,36.431,51.379,43.859,60.782c2.015-0.672,2.134-2.158,2.58-7.783c0.126-1.576,0.265-3.303,0.484-5.191
	c0.738-6.339,1.26-12.86,1.761-19.167c1.07-13.425,2.176-27.308,5.467-40.862c6.755-27.825,17.78-53.442,32.769-76.144
	c9.369-14.193,24.85-34.307,45.401-49.555c2.21-1.642,5.342-1.176,6.979,1.036c1.642,2.212,1.179,5.337-1.035,6.979
	c-19.381,14.38-34.093,33.515-43.018,47.035c-14.351,21.739-24.916,46.3-31.401,73.001c-3.104,12.784-4.178,26.266-5.215,39.301
	c-0.509,6.397-1.038,13.011-1.798,19.53c-0.205,1.754-0.331,3.362-0.448,4.828c-0.609,7.679-1.24,15.618-13.869,17.393
	c-1.744,0.234-3.493-0.448-4.592-1.827c-1.464-1.832-35.936-45.067-46.665-64.543c-6.563-11.917-13.187-23.776-19.802-35.622
	c-14.897-26.676-30.193-54.064-44.599-81.868c-1.673,14.833-4.427,29.548-8.362,44.016c-11.281,41.473-33.054,80.583-62.614,111.672
	c23.593,58.032,56.315,116.81,97.675,175.378c14.816,20.982,30.414,41.294,46.356,60.368c1.769,2.112,1.486,5.259-0.629,7.026
	c-0.933,0.782-2.068,1.162-3.196,1.162c-1.428,0-2.843-0.609-3.83-1.791c-16.117-19.279-31.88-39.805-46.852-61.011
	c-40.868-57.869-73.406-115.987-97.157-173.45c-23.677,22.791-51.807,40.578-83.165,50.803
	c-36.851,12.016-80.84,17.864-122.13,14.82c7.405,72.036,4.207,150.452-9.555,233.598c-4.317,26.085-9.659,51.89-15.871,76.704
	c-0.269,1.074-0.87,1.975-1.662,2.629c67.17,2.291,136.083-6.619,195.733-24.042c43.798-12.792,84.623-33.189,121.55-59.394
	c3.273-2.323,6.515-4.695,9.727-7.108c42.132-31.657,78.878-70.954,108.781-115.073c3.012-4.444,5.955-8.936,8.827-13.475
	c24.343-38.474,43.59-80.254,56.832-123.583c28.582-93.526,31.295-193.326,15.188-289.427
	C1355.882,1276.886,1353.624,1277.064,1351.371,1277.065z"/>
<path style="fill:#BBBCBB;" d="M826.227,1861.942c19.167-34.527,26.823-74.963,20.093-113.99
	c-7.838-45.446-35.363-89.169-74.711-113.65c-15.664-9.745-32.516-16.106-49.924-20.883c-0.689,11.788-1.372,23.585-1.994,35.404
	c-1.186,22.604-13.603,77.52-14.131,79.846c-0.39,1.72-1.659,3.106-3.34,3.647c-12.281,3.937-16.376-3.013-20.322-9.749
	c-0.757-1.294-1.588-2.712-2.555-4.229c-3.586-5.635-7.001-11.461-10.304-17.093c-6.741-11.496-13.708-23.379-22.232-33.727
	c-17.793-21.603-38.382-39.435-61.196-53.001c-24.865-14.785-87.513-45.281-132.148-9.23c-2.141,1.732-5.283,1.398-7.016-0.745
	c-1.732-2.144-1.398-5.284,0.745-7.016c49.505-39.995,116.862-7.437,143.52,8.416c23.805,14.156,45.269,32.738,63.798,55.233
	c9.026,10.96,16.2,23.194,23.135,35.024c3.259,5.556,6.626,11.301,10.117,16.782c1.038,1.632,1.932,3.153,2.746,4.543
	c2.967,5.062,3.703,6.355,5.973,6.027c2.614-11.818,12.255-56.371,13.247-75.25c0.655-12.492,1.38-24.958,2.109-37.413
	c-29.648-7.154-60.53-10.762-89.604-19.413c-23.519-6.999-46.472-17.754-65.191-33.844c-16.458-14.147-29.194-31.974-38.848-51.324
	c-20.735-41.565-28.038-88.899-32.727-134.646c-4.619-45.058-6.479-90.231-14.17-134.948c-7.15-41.563-20.325-82.541-52.641-111.485
	c-19.607-17.562-43.488-29.554-67.768-39.265c-3.592-1.436-7.21-2.772-10.846-4.026c-0.031-0.011-0.061-0.022-0.092-0.032
	c4.567,44.541,7.974,89.184,9.663,133.926c0.004,0.1,0.007,0.2,0.011,0.3c0.047,1.236,0.091,2.472,0.135,3.707
	c0.038,1.072,0.074,2.143,0.11,3.214c0.017,0.516,0.035,1.032,0.052,1.548c0.056,1.744,0.111,3.489,0.163,5.234
	c1.877,63.469,1.799,127.875,7.621,191.21c0.51,5.556,1.067,11.103,1.673,16.641c0.607,5.538,1.264,11.066,1.978,16.583
	c0.427,3.31,0.876,6.617,1.346,9.919c0.469,3.302,0.96,6.6,1.474,9.893c0.342,2.196,0.694,4.389,1.057,6.581
	c0.181,1.096,0.365,2.191,0.551,3.286c0.214,1.26,0.433,2.519,0.655,3.778c0.326,1.853,0.661,3.703,1.002,5.553
	c0.233,1.26,0.469,2.52,0.709,3.779c0.208,1.091,0.419,2.18,0.632,3.269c0.251,1.274,0.506,2.547,0.764,3.819
	c0.624,3.078,1.269,6.152,1.94,9.221c0.711,3.252,1.45,6.499,2.216,9.74c0.256,1.081,0.515,2.16,0.776,3.239
	c0.786,3.236,1.599,6.467,2.444,9.692c0.281,1.075,0.566,2.149,0.854,3.222c0.575,2.146,1.164,4.291,1.768,6.431
	c0.534,1.899,1.082,3.796,1.638,5.689c0.774,2.632,1.568,5.258,2.384,7.88c0.503,1.616,1.014,3.23,1.534,4.842
	c0.196,0.606,0.393,1.211,0.59,1.817c1.494,4.574,3.058,9.133,4.694,13.677c0.275,0.764,0.552,1.528,0.831,2.291
	c1.629,4.454,3.329,8.892,5.101,13.314c0.339,0.845,0.68,1.688,1.023,2.531c0.677,1.66,1.362,3.319,2.059,4.974
	c0.629,1.493,1.27,2.982,1.917,4.471c0.505,1.163,1.016,2.324,1.531,3.485c0.665,1.495,1.335,2.989,2.018,4.48
	c0.722,1.578,1.458,3.152,2.201,4.725c0.954,2.022,1.926,4.039,2.915,6.052c0.508,1.033,1.019,2.065,1.537,3.097
	c2.073,4.137,4.221,8.258,6.446,12.361c0.499,0.919,1.001,1.838,1.507,2.755c0.868,1.573,1.744,3.143,2.634,4.71
	c0.964,1.696,1.938,3.388,2.92,5.073c0.783,1.344,1.573,2.683,2.368,4.02c1.391,2.34,2.8,4.67,4.227,6.989
	c0.634,1.03,1.272,2.058,1.912,3.084c0.898,1.439,1.803,2.873,2.716,4.303c0.673,1.057,1.352,2.112,2.033,3.165
	c0.371,0.574,0.743,1.146,1.117,1.718c0.702,1.076,1.407,2.148,2.117,3.219c0.36,0.544,0.722,1.088,1.085,1.63
	c0.73,1.093,1.464,2.184,2.202,3.271c0.35,0.515,0.701,1.029,1.051,1.543c0.76,1.111,1.523,2.219,2.291,3.324
	c1.054,1.517,2.115,3.028,3.184,4.534c0.64,0.901,1.282,1.801,1.927,2.698c1.448,2.013,2.91,4.017,4.385,6.01
	c1.012,1.367,2.029,2.73,3.054,4.087c0.725,0.961,1.454,1.917,2.185,2.873c1.309,1.711,2.63,3.413,3.959,5.109
	c0.939,1.198,1.883,2.394,2.834,3.585c1.217,1.526,2.443,3.045,3.677,4.557c1.334,1.635,2.678,3.261,4.031,4.88
	c1.056,1.264,2.117,2.522,3.184,3.775c1.698,1.996,3.413,3.979,5.14,5.949c0.87,0.993,1.743,1.984,2.621,2.97
	c0.142,0.16,0.283,0.318,0.426,0.478c1.881,2.109,3.777,4.204,5.691,6.283c1.279,1.39,2.565,2.772,3.859,4.148
	c0.711,0.757,1.424,1.512,2.141,2.264c1.345,1.414,2.697,2.821,4.057,4.22c0.68,0.699,1.362,1.397,2.045,2.093
	c2.051,2.087,4.119,4.158,6.205,6.211c0.695,0.684,1.392,1.366,2.091,2.047c2.096,2.042,4.208,4.066,6.338,6.072
	c1.051,0.99,2.107,1.975,3.167,2.957c3.232,2.995,6.499,5.952,9.804,8.866c5.119,4.513,10.325,8.925,15.615,13.234
	c2.267,1.846,4.55,3.673,6.847,5.481c2.297,1.808,4.61,3.596,6.937,5.364c0.775,0.589,1.554,1.177,2.333,1.762
	c2.337,1.755,4.69,3.49,7.056,5.204c3.944,2.858,7.93,5.659,11.954,8.403c0.805,0.549,1.612,1.095,2.42,1.639
	c1.615,1.088,3.238,2.167,4.866,3.236c0.815,0.535,1.63,1.067,2.448,1.597c2.453,1.589,4.918,3.159,7.398,4.705
	c4.133,2.578,8.302,5.095,12.51,7.551c1.682,0.982,3.371,1.955,5.065,2.918c1.694,0.963,3.395,1.915,5.101,2.858
	c1.706,0.942,3.417,1.875,5.135,2.797c5.152,2.767,10.355,5.443,15.606,8.023c1.751,0.861,3.507,1.711,5.268,2.55
	c4.403,2.098,8.841,4.13,13.31,6.095c0.894,0.393,1.789,0.783,2.686,1.171c2.689,1.162,5.39,2.301,8.102,3.414
	c9.042,3.711,18.208,7.147,27.493,10.295c0.857,0.29,1.716,0.578,2.577,0.862c0.134,0.045,0.268,0.088,0.403,0.132
	c0.768,0.253,1.537,0.505,2.308,0.754c0.042,0.013,0.084,0.026,0.125,0.04c26.737,8.604,55.403,14.486,84.934,18.058
	C805.935,1892.449,817.363,1877.908,826.227,1861.942z"/>
<path style="fill:#BBBCBB;" d="M1114.779,834.367c0.112,9.781,1.061,19.308,2.911,28.619c12.528-16.6,28.591-29.797,48.81-37.655
	c2.568-1.001,5.457,0.275,6.458,2.843c0.999,2.568-0.275,5.46-2.843,6.458c-20.992,8.157-37.151,22.713-49.287,41.088
	c2.102,7.103,4.771,14.083,8.042,20.957c13.167,27.662,32.155,52.238,44.316,80.38c6.109,14.135,10.066,29.141,11.512,44.48
	c1.584,16.794,1.159,33.807,2.316,50.651c2.064,30.041,6.509,60.169,17.994,88.191c12.377,30.199,32.508,56.889,56.981,78.353
	c25.023,21.946,55.352,38.345,89.382,38.333c2.253,0,4.511-0.178,6.77-0.334c-1.018-6.072-2.099-12.132-3.266-18.173
	c-0.001-0.01-0.004-0.02-0.005-0.03c-4.044-20.944-8.795-41.102-14.223-60.699c-0.588-2.12-1.183-4.234-1.786-6.342
	c-1.38-4.819-2.799-9.606-4.26-14.362c-1.781-5.791-3.623-11.539-5.524-17.249c-0.639-1.916-1.287-3.828-1.939-5.736
	c-0.805-2.356-1.617-4.706-2.443-7.05c-0.996-2.828-2.008-5.649-3.033-8.461c-0.653-1.789-1.314-3.574-1.979-5.358
	c-0.903-2.421-1.814-4.839-2.74-7.251c-10.708-27.917-22.901-55.196-36.502-82.598c-2.371-4.777-4.788-9.559-7.245-14.348
	c-0.726-1.416-1.456-2.832-2.189-4.249c-0.683-1.321-1.37-2.642-2.06-3.964c-0.753-1.443-1.51-2.887-2.271-4.332
	c-1.407-2.672-2.827-5.348-4.26-8.027c-1.536-2.871-3.085-5.748-4.65-8.63c-1.436-2.645-2.886-5.295-4.347-7.95
	c-1.188-2.159-2.382-4.321-3.587-6.488c-0.63-1.132-1.256-2.266-1.882-3.399c-0.043-0.078-0.086-0.155-0.13-0.234
	c-0.228-0.414-0.455-0.828-0.683-1.243c-0.449-0.815-0.897-1.63-1.344-2.446c-0.404-0.738-0.806-1.478-1.209-2.217
	c-0.25-0.458-0.5-0.917-0.75-1.376c-0.449-0.828-0.897-1.656-1.344-2.485c-0.217-0.401-0.435-0.802-0.652-1.203
	c-0.536-0.994-1.07-1.991-1.603-2.987c-0.115-0.214-0.231-0.428-0.346-0.643c-38.495-71.951-70.158-147.552-94.462-225.45
	c-0.007,0.008-0.014,0.015-0.022,0.021C1122.605,764.997,1114.416,803.114,1114.779,834.367z"/>
<path style="fill:#A7A9A7;" d="M563.279,637.901c2.811,0.068,5.028,2.144,5.079,4.899c0.049,2.755-2.144,5.028-4.899,5.079
	l-274.213,4.932c0.564,21.605,2.013,43.794,4.493,66.719c-0.017,3.409,0.007,6.819,0.069,10.229l272.498-69.558
	c2.685-0.694,5.391,0.93,6.068,3.598c0.682,2.67-0.93,5.388-3.598,6.068l-274.67,70.112c0.984,24.742,3.828,49.476,7.429,74.143
	c0.572,3.918,1.162,7.834,1.769,11.748l267.919-148.218c2.412-1.33,5.447-0.463,6.78,1.951c1.335,2.409,0.46,5.447-1.951,6.78
	L304.96,836.357c2.191,13.639,4.512,27.254,6.777,40.831c11.333,67.956,21.281,136.224,28.307,204.749
	c3.637,1.253,7.254,2.589,10.846,4.026c24.281,9.711,48.161,21.703,67.768,39.265c32.316,28.944,45.491,69.922,52.641,111.485
	c7.691,44.717,9.551,89.89,14.17,134.948c4.689,45.748,11.992,93.082,32.727,134.646c9.654,19.35,22.389,37.177,38.848,51.324
	c18.719,16.09,41.672,26.845,65.191,33.844c29.074,8.651,59.956,12.259,89.604,19.413c0.078-1.333,0.156-2.667,0.234-4
	c1.523-25.983,3.078-52.548,4.051-79.163c-18.645-17.376-34.917-37.344-48.194-59.104c-40.169-65.832-39.611-142.287-44.09-216.131
	c-3.718-61.282-13.589-122.042-25.562-182.259c-2.148-10.807-4.369-21.656-6.305-32.54c-4.005-22.522-6.786-45.191-5.171-67.934
	c2.896-40.797,20.699-79.418,47.739-110.187c-3.844-9.478-9.212-20.024-17.353-27.979c-4.236-4.144-11.001-9.225-19.176-9.917
	c-20.29-1.7-33.379,22.575-40.765,43.257c-34.709,97.169-64.229,197.386-87.739,297.866c-0.519,2.217-2.475,3.803-4.755,3.852
	c-2.387,0.014-4.297-1.457-4.909-3.652c-18.056-64.911-48.272-173.554-128.367-193.43c-2.675-0.665-4.305-3.369-3.642-6.044
	c0.665-2.675,3.396-4.297,6.044-3.642c78.241,19.418,111.062,114.499,130.368,181.903c22.833-94.555,50.928-188.728,83.603-280.209
	c12.287-34.4,29.951-51.608,51.006-49.844c11.126,0.943,19.903,7.44,25.308,12.726c8.125,7.94,13.714,17.808,17.815,27.087
	c16.673-17.073,36.304-31.315,57.777-41.603c51.039-24.454,115.724-38.416,170.054-24.032c3.556,0.942,7.049,1.993,10.479,3.15
	c0.552-3.107,1.164-6.212,1.838-9.313c2.466-11.345,6.463-25.864,15.542-37.552c4.316-5.554,11.591-12.653,21.739-14.933
	c19.225-4.302,37.644,9.286,53.262,39.338c39.435,75.858,75.364,154.484,106.994,234.114
	c0.094-48.685,10.588-101.368,38.028-137.724c-1.85-9.311-2.799-18.839-2.911-28.619c-0.363-31.253,7.826-69.37,30.625-92.594
	c-0.229-0.737-0.46-1.474-0.689-2.212c-11.67-37.641-22.603-76.111-35.779-113.661l-284.873,7.672l-0.136,0.003
	c-2.694,0-4.911-2.146-4.984-4.855c-0.076-2.755,2.097-5.047,4.852-5.121l281.608-7.584c-9.139-25.123-19.412-49.76-31.722-73.382
	l-251.728,73.017c-0.465,0.134-0.933,0.2-1.393,0.2c-2.163,0-4.156-1.42-4.789-3.601c-0.767-2.648,0.755-5.415,3.401-6.182
	l249.697-72.428c-0.181-0.329-0.364-0.657-0.545-0.984c0.023,0.012,0.047,0.023,0.071,0.035c-8.921-22.082-18.494-43.9-28.695-65.42
	L815.371,594.004c-0.775,0.438-1.618,0.646-2.449,0.646c-1.742,0-3.432-0.911-4.348-2.536c-1.354-2.397-0.509-5.442,1.89-6.797
	l224.916-127.065c-38.634-79.805-85.958-155.405-140.915-224.984c-8.057-10.201-18.096-21.185-31.095-21.136
	c-19.683,0.075-29.137,23.737-33.417,42.949l-18.138,81.426c-94.878-15.677-201.766,6.771-289.03,45.301
	c-27.02,11.93-52.668,27.062-76.352,44.834c-17.567-22.773-35.136-45.547-52.703-68.321c-12.022-15.585-30.618-33.005-48.476-24.728
	c-11.793,5.467-16.227,19.672-19.198,32.326c-21.195,90.259-38.375,177.553-37.01,276.913L563.279,637.901z"/>
<path style="fill:#BBBCBB;" d="M858.458,1594.97c-1.01-9.551-2.206-18.988-3.594-28.304c-7.367-49.42-29.211-139.725-64.351-164.701
	c-7.961-5.661-15.995-7.627-24.524-6.012c-38.319,7.247-38.716,61.223-38.93,90.222c-0.123,16.683-0.601,33.434-1.283,50.132
	c26.673,22.619,57.622,40.097,91.257,50.35C830.116,1590.643,844.069,1593.373,858.458,1594.97z"/>
<path style="fill:#BBBCBB;" d="M1067.887,1280.739c-8.214,2.22-14.446,7.377-19.05,15.764
	c-20.358,37.086-1.033,126.224,13.598,173.045c5.498,17.595,11.864,35.288,19.086,53.05c29.56-31.089,51.334-70.199,62.614-111.672
	c3.935-14.468,6.689-29.183,8.362-44.016c-3.978-7.679-7.889-15.389-11.704-23.126
	C1128.208,1318.266,1104.802,1270.8,1067.887,1280.739z"/>
<path style="fill:#BBBCBB;" d="M764.133,1386.149c11.191-2.119,22.01,0.465,32.161,7.681
	c46.631,33.145,66.346,157.315,68.441,171.364c1.505,10.1,2.79,20.339,3.857,30.708c41.29,3.044,85.279-2.804,122.13-14.82
	c31.359-10.225,59.488-28.012,83.165-50.803c-7.993-19.338-14.993-38.601-20.977-57.756
	c-4.161-13.318-39.873-131.542-12.821-180.823c5.896-10.74,14.373-17.671,25.196-20.594c44.799-12.112,70.607,40.173,84.458,68.263
	c1.422,2.883,2.859,5.763,4.307,8.641c1.686-32.424-1.544-65.141-8.684-96.808c-11.735-52.037-31.642-94.351-58.865-139.932
	c-23.755-39.774-43.383-82.011-58.468-125.814c-13.768-39.98-25.957-81.849-49.996-117.159
	c-23.165-34.027-52.032-60.936-88.235-75.699c-15.447,91.031,22.404,185.145,53.046,261.337c1.028,2.555-0.21,5.462-2.767,6.49
	c-0.609,0.246-1.24,0.363-1.858,0.363c-1.978,0-3.849-1.184-4.631-3.13c-31.327-77.894-70.071-174.227-53.302-268.601
	c-3.43-1.156-6.923-2.208-10.479-3.15c-54.33-14.384-119.015-0.422-170.054,24.032c-21.473,10.288-41.104,24.53-57.777,41.603
	c1.661,3.758,3.079,7.42,4.322,10.818c37.047,101.349,8.548,214.83-14.353,306.012c-0.567,2.263-2.601,3.773-4.833,3.773
	l-1.22-0.151c-2.673-0.67-4.295-3.382-3.623-6.054c22.567-89.856,50.653-201.686,14.658-300.156
	c-0.727-1.989-1.519-4.075-2.386-6.216c-27.039,30.769-44.843,69.39-47.739,110.187c-1.615,22.743,1.166,45.412,5.171,67.934
	c1.935,10.884,4.156,21.733,6.305,32.54c11.973,60.217,21.844,120.977,25.562,182.259c4.479,73.844,3.921,150.299,44.09,216.131
	c13.277,21.76,29.549,41.728,48.194,59.104c0.507-13.886,0.855-27.785,0.957-41.624
	C717.317,1454.234,717.753,1394.919,764.133,1386.149z"/>
<path style="fill:#15162B;" d="M334.265,479.098l0.987,0.097c2.329,0,4.412-1.637,4.887-4.007l17.615-87.73
	c0.643-3.201,2.536-10.682,6.256-11.013c2.324-0.21,5.137,2.453,7.554,5.089c12.887,14.039,43.174,48.115,54.531,63.834
	c1.612,2.232,4.733,2.736,6.967,1.121c2.231-1.612,2.733-4.733,1.121-6.965c-11.615-16.075-42.251-50.557-55.267-64.738
	c-2.667-2.906-8.263-8.906-15.793-8.28c-5.269,0.472-12.175,4.148-15.152,18.989l-17.615,87.729
	C329.812,475.926,331.563,478.555,334.265,479.098z"/>
<path style="fill:#15162B;" d="M835.636,356.09l1.232,0.154c2.229,0,4.259-1.501,4.833-3.759c4.774-18.76,20.414-61.603,27.24-79.41
	c1.206-3.143,2.879-6.836,5.157-7.508c3.537-1.04,8.093,5.201,9.869,7.941l48.633,75.111c1.496,2.316,4.585,2.974,6.899,1.476
	c2.315-1.498,2.974-4.587,1.476-6.899l-48.633-75.11c-8.229-12.707-15.995-13.581-21.074-12.088
	c-7.292,2.158-10.232,9.822-11.642,13.505c-6.894,17.985-22.712,61.333-27.596,80.521
	C831.351,352.694,832.966,355.41,835.636,356.09z"/>
<path style="fill:#15162B;" d="M730.053,671.059c0.979,1.326,2.487,2.025,4.017,2.025c1.03,0,2.068-0.317,2.959-0.977
	c2.217-1.639,2.685-4.763,1.048-6.977l-31.313-42.355c0.647-0.8,1.286-1.605,1.913-2.419c2.712-3.522,5.291-7.288,6.327-11.566
	c1.035-4.278,0.253-9.198-2.998-12.193c-0.443-0.407-0.917-0.769-1.417-1.091c-2.533-1.624-5.74-2.207-8.824-2.339
	c-5.459-0.235-10.982,0.731-16.041,2.806c-3.446,1.414-6.78,3.432-8.86,6.469c-7.055,10.297,6.799,20.107,16.708,24.259
	l-7.87,52.233c-0.412,2.724,1.464,5.267,4.19,5.676l0.75,0.056c2.426,0,4.553-1.774,4.926-4.246l7.01-46.524L730.053,671.059z"/>
<path style="fill:#15162B;" d="M798.279,512.603c-28.938-2.684-58.224,9.747-76.424,32.412c-1.725,2.148-1.381,5.288,0.767,7.013
	c0.921,0.741,2.024,1.099,3.121,1.099c1.459,0,2.906-0.639,3.893-1.866c15.88-19.778,42.446-31.04,67.727-28.723
	c2.73,0.261,5.169-1.769,5.425-4.509C803.042,515.286,801.022,512.857,798.279,512.603z"/>
<path style="fill:#15162B;" d="M642.323,561.487c-26.107-12.76-57.895-11.535-82.95,3.198c-2.375,1.396-3.169,4.453-1.771,6.828
	c0.928,1.581,2.594,2.461,4.305,2.461c0.86,0,1.729-0.222,2.523-0.689c21.871-12.86,50.724-13.968,73.513-2.833
	c2.48,1.213,5.462,0.183,6.672-2.292C645.826,565.685,644.798,562.698,642.323,561.487z"/>
<path style="fill:#15162B;" d="M810.464,585.317c-2.4,1.354-3.245,4.399-1.89,6.797c0.916,1.625,2.606,2.536,4.348,2.536
	c0.831,0,1.674-0.207,2.449-0.646l224.327-126.733l56.759-32.065c2.399-1.355,3.245-4.399,1.89-6.797
	c-1.352-2.399-4.39-3.249-6.797-1.89l-56.171,31.734L810.464,585.317z"/>
<path style="fill:#15162B;" d="M815.77,612.25c0.634,2.181,2.626,3.601,4.789,3.601c0.46,0,0.928-0.066,1.393-0.2l251.728-73.017
	l69.448-20.145c2.645-0.767,4.168-3.535,3.4-6.182c-0.77-2.643-3.535-4.163-6.183-3.401l-71.479,20.734l-249.697,72.428
	C816.525,606.835,815.003,609.602,815.77,612.25z"/>
<path style="fill:#15162B;" d="M818.942,628.72c0.073,2.709,2.29,4.855,4.984,4.855l0.136-0.003l284.873-7.672l44.644-1.202
	c2.755-0.073,4.928-2.366,4.852-5.121c-0.073-2.755-2.27-5.011-5.12-4.853l-47.909,1.29l-281.608,7.584
	C821.039,623.673,818.866,625.965,818.942,628.72z"/>
<path style="fill:#15162B;" d="M240.579,653.685h0.093l48.574-0.874l274.213-4.932c2.755-0.051,4.948-2.324,4.899-5.079
	c-0.051-2.755-2.268-4.831-5.079-4.899l-274.231,4.932l-48.556,0.873c-2.755,0.051-4.948,2.324-4.899,5.079
	C235.642,651.51,237.866,653.685,240.579,653.685z"/>
<path style="fill:#15162B;" d="M572.375,663.799c-0.677-2.668-3.383-4.292-6.068-3.598L293.809,729.76l-51.529,13.153
	c-2.667,0.68-4.28,3.398-3.598,6.068c0.575,2.256,2.604,3.754,4.83,3.754l1.238-0.156l49.356-12.599l274.67-70.112
	C571.444,669.188,573.056,666.469,572.375,663.799z"/>
<path style="fill:#15162B;" d="M578.002,679.604c-1.333-2.414-4.368-3.281-6.78-1.951L303.304,825.871l-20.522,11.353
	c-2.412,1.333-3.286,4.37-1.951,6.78c0.911,1.647,2.614,2.575,4.37,2.575c0.816,0,1.644-0.2,2.409-0.624l17.349-9.598
	L576.05,686.384C578.462,685.051,579.337,682.013,578.002,679.604z"/>
<path style="fill:#15162B;" d="M843.166,1906.204c6.212-24.813,11.555-50.619,15.871-76.704
	c13.762-83.146,16.96-161.562,9.555-233.598c-1.067-10.37-2.352-20.608-3.857-30.708c-2.095-14.049-21.81-138.219-68.441-171.364
	c-10.151-7.216-20.969-9.8-32.161-7.681c-46.38,8.77-46.816,68.085-47.052,99.951c-0.102,13.839-0.451,27.738-0.957,41.624
	c-0.973,26.615-2.529,53.18-4.051,79.163c-0.078,1.333-0.156,2.667-0.234,4c-0.729,12.455-1.454,24.921-2.109,37.413
	c-0.992,18.879-10.634,63.432-13.247,75.25c-2.271,0.329-3.006-0.965-5.973-6.027c-0.814-1.391-1.708-2.911-2.746-4.543
	c-3.491-5.481-6.857-11.225-10.117-16.782c-6.935-11.829-14.109-24.064-23.135-35.024c-18.529-22.495-39.992-41.077-63.798-55.233
	c-26.658-15.854-94.015-48.411-143.52-8.416c-2.144,1.732-2.478,4.872-0.745,7.016c1.732,2.144,4.874,2.478,7.016,0.745
	c44.636-36.051,107.284-5.554,132.148,9.23c22.814,13.566,43.403,31.398,61.196,53.001c8.524,10.348,15.491,22.232,22.232,33.727
	c3.303,5.632,6.719,11.459,10.304,17.093c0.967,1.518,1.798,2.936,2.555,4.229c3.946,6.736,8.041,13.686,20.322,9.749
	c1.681-0.541,2.95-1.927,3.34-3.647c0.529-2.326,12.945-57.242,14.131-79.846c0.621-11.819,1.304-23.617,1.994-35.404
	c0.116-1.983,0.232-3.966,0.348-5.947c1.369-23.373,2.765-47.215,3.743-71.167c0.681-16.697,1.159-33.448,1.283-50.132
	c0.215-28.999,0.611-82.975,38.93-90.222c8.529-1.615,16.563,0.351,24.524,6.012c35.14,24.977,56.984,115.281,64.351,164.701
	c1.388,9.316,2.584,18.753,3.594,28.304c7.576,71.683,4.478,149.876-9.263,232.901c-4.275,25.82-9.562,51.357-15.71,75.908
	c-0.446,1.788,0.132,3.591,1.362,4.79c0.61,0.595,1.38,1.042,2.265,1.264l1.218,0.148c1.175,0,2.293-0.421,3.173-1.147
	C842.296,1908.179,842.897,1907.278,843.166,1906.204z"/>
<path style="fill:#15162B;" d="M1065.285,1271.107c-10.823,2.923-19.301,9.854-25.196,20.594
	c-27.052,49.281,8.66,167.505,12.821,180.823c5.984,19.155,12.984,38.418,20.977,57.756c23.751,57.462,56.289,115.58,97.157,173.45
	c14.972,21.206,30.735,41.732,46.852,61.011c0.986,1.181,2.402,1.791,3.83,1.791c1.127,0,2.263-0.38,3.196-1.162
	c2.114-1.766,2.397-4.914,0.629-7.026c-15.941-19.074-31.54-39.386-46.356-60.368c-41.359-58.568-74.082-117.346-97.675-175.378
	c-7.222-17.762-13.588-35.455-19.086-53.05c-14.631-46.821-33.956-135.958-13.598-173.045c4.604-8.387,10.835-13.544,19.05-15.764
	c36.916-9.939,60.321,37.527,72.906,63.045c3.815,7.736,7.726,15.446,11.704,23.126c14.406,27.804,29.702,55.192,44.599,81.868
	c6.616,11.847,13.24,23.705,19.802,35.622c10.728,19.476,45.201,62.711,46.665,64.543c1.099,1.379,2.848,2.061,4.592,1.827
	c12.629-1.776,13.259-9.715,13.869-17.393c0.117-1.466,0.244-3.074,0.448-4.828c0.76-6.519,1.289-13.133,1.798-19.53
	c1.038-13.035,2.112-26.517,5.215-39.301c6.485-26.701,17.05-51.262,31.401-73.001c8.925-13.52,23.637-32.655,43.018-47.035
	c2.215-1.642,2.677-4.768,1.035-6.979c-1.637-2.212-4.769-2.677-6.979-1.036c-20.55,15.247-36.032,35.362-45.401,49.555
	c-14.989,22.702-26.014,48.319-32.769,76.144c-3.291,13.554-4.397,27.437-5.467,40.862c-0.501,6.307-1.023,12.828-1.761,19.167
	c-0.219,1.888-0.358,3.615-0.484,5.191c-0.446,5.625-0.565,7.111-2.58,7.783c-7.428-9.403-34.921-44.555-43.859-60.782
	c-6.572-11.934-13.205-23.81-19.832-35.676c-17.411-31.177-35.368-63.331-51.757-95.9c-1.448-2.877-2.885-5.757-4.307-8.641
	C1135.891,1311.279,1110.084,1258.994,1065.285,1271.107z"/>
<path style="fill:#15162B;" d="M933.59,1057.658c0.782,1.946,2.653,3.13,4.631,3.13c0.619,0,1.25-0.117,1.858-0.363
	c2.558-1.028,3.796-3.934,2.767-6.49c-30.642-76.191-68.493-170.305-53.046-261.337c0.608-3.584,1.297-7.163,2.074-10.736
	c2.244-10.314,5.825-23.447,13.671-33.549c3.313-4.263,8.787-9.688,16.046-11.32c18.09-4.061,32.95,16.358,42.224,34.204
	c43.866,84.383,83.374,172.199,117.43,261.011c0.889,2.321,3.342,3.625,5.778,3.077c2.424-0.56,4.065-2.816,3.849-5.293
	c-4.436-50.998,2.37-112.504,29.955-154.271c12.136-18.376,28.295-32.931,49.287-41.088c2.568-0.999,3.842-3.89,2.843-6.458
	c-1.001-2.567-3.89-3.844-6.458-2.843c-20.219,7.857-36.281,21.054-48.81,37.655c-27.44,36.356-37.934,89.038-38.028,137.724
	c-31.63-79.629-67.559-158.256-106.994-234.114c-15.618-30.051-34.037-43.64-53.262-39.338c-10.149,2.28-17.423,9.379-21.739,14.933
	c-9.08,11.688-13.077,26.207-15.542,37.552c-0.674,3.102-1.286,6.206-1.838,9.313C863.518,883.431,902.263,979.764,933.59,1057.658z
	"/>
<path style="fill:#15162B;" d="M622.27,1165.94c-0.672,2.672,0.95,5.384,3.623,6.054l1.22,0.151c2.232,0,4.266-1.51,4.833-3.773
	c22.902-91.182,51.401-204.662,14.353-306.012c-1.242-3.398-2.66-7.06-4.322-10.818c-4.101-9.28-9.69-19.148-17.815-27.087
	c-5.406-5.286-14.183-11.783-25.308-12.726c-21.055-1.764-38.718,15.445-51.006,49.844c-32.675,91.481-60.77,185.654-83.603,280.209
	c-19.306-67.403-52.127-162.485-130.368-181.903c-2.648-0.655-5.379,0.967-6.044,3.642c-0.663,2.675,0.967,5.379,3.642,6.044
	c80.095,19.875,110.311,128.519,128.367,193.43c0.612,2.195,2.521,3.666,4.909,3.652c2.28-0.049,4.236-1.635,4.755-3.852
	c23.51-100.48,53.03-200.696,87.739-297.866c7.386-20.682,20.475-44.957,40.765-43.257c8.175,0.692,14.94,5.773,19.176,9.917
	c8.142,7.955,13.509,18.501,17.353,27.979c0.868,2.141,1.659,4.227,2.386,6.216C672.922,964.254,644.837,1076.083,622.27,1165.94z"
	/>
<path style="fill:#15162B;" d="M762.162,736.791c-2.804-0.326-5.198,1.708-5.478,4.446c-1.208,11.632-11.861,19.218-21.427,22.439
	c-11.837,3.981-23.876,2.297-29.969-4.2c-1.883-2.015-5.037-2.114-7.05-0.229c-2.012,1.883-2.114,5.04-0.229,7.05
	c5.832,6.226,14.719,9.513,24.602,9.513c5.106,0,10.475-0.877,15.827-2.677c15.956-5.372,26.751-17.199,28.171-30.862
	C766.893,739.529,764.903,737.076,762.162,736.791z"/>
<path style="fill:#BBBCBB;" d="M683.034,399.04c12.214,15.385,22.935,31.82,33.87,48.111c-0.607-11.353-3.063-22.606-6.107-33.52
	c-5.619-20.144-12.021-40.688-21.887-59.21c-3.347-6.284-7.234-12.143-11.617-17.555c-18.799,2.759-37.511,6.481-55.921,11.103
	c3.429,1.315,6.788,2.822,10.038,4.552C652.047,363.504,668.643,380.913,683.034,399.04z"/>
<path style="fill:#BBBCBB;" d="M722.678,357.972c8.983,8.424,17.218,17.645,24.688,27.432c7.276,9.533,13.345,19.139,17.243,30.543
	c2.917,8.537,5.101,17.428,8.798,25.671c1.354-10.461,1.358-21.069,0.625-31.59c-1.59-22.788-5.123-46.34-13.005-67.855
	c-1.317-3.593-2.843-7.114-4.475-10.585c-19.866-0.391-39.973,0.604-60.068,2.801c1.093,0.859,2.166,1.73,3.22,2.605
	C707.672,343.603,715.128,350.892,722.678,357.972z"/>
<path style="fill:#BBBCBB;" d="M665.99,449.822c-3.352-9.287-6.807-18.536-10.719-27.602c-8.876-20.571-20.306-40.04-36.932-55.318
	c-5.437-4.995-11.275-9.43-17.379-13.46c-21.361,6.162-42.18,13.442-62.132,21.578c0.893,0.217,1.796,0.395,2.688,0.622
	C589.48,387.815,632.743,413.423,665.99,449.822z"/>
</svg>
