<svg width="24" height="24" viewBox="0 0 24 24" fill="none" xmlns="http://www.w3.org/2000/svg">
<path d="M10.5858 10.5858C10.9477 10.2239 11.4477 10 12 10C13.1046 10 14 10.8954 14 12C14 12.5523 13.7761 13.0523 13.4142 13.4142M10.5858 10.5858L13.4142 13.4142M10.5858 10.5858L7.61839 7.61839M13.4142 13.4142L16.3816 16.3816M21 21L16.3816 16.3816M16.3816 16.3816C16.8327 16.0858 17.2604 15.7396 17.6569 15.3431L21 12L17.6569 8.65685C14.9291 5.92913 10.7217 5.58297 7.61839 7.61839M7.61839 7.61839L3 3M5 10L3 12L6.34315 15.3431C8.1601 17.1601 10.6336 17.9204 13 17.6239" stroke="#686B6E" stroke-width="1.5" stroke-linecap="round" stroke-linejoin="round"/>
</svg>
