<svg width="24" height="24" viewBox="0 0 24 24" xmlns="http://www.w3.org/2000/svg">
<path d="M13.9238 1.20772C14.1821 1.00879 14.5212 0.948278 14.8324 1.04558C19.3012 2.44287 22.546 6.61419 22.546 11.546C22.546 17.6211 17.6212 22.546 11.546 22.546C6.61418 22.546 2.44283 19.3011 1.04557 14.8322C0.948278 14.521 1.00879 14.1819 1.20773 13.9236C1.40667 13.6653 1.71904 13.5202 2.04475 13.5348C2.21088 13.5422 2.37804 13.546 2.54613 13.546C8.62127 13.546 13.5461 8.62112 13.5461 2.54598C13.5461 2.37793 13.5424 2.21082 13.5349 2.04475C13.5203 1.71903 13.6655 1.40666 13.9238 1.20772ZM15.5141 3.46542C15.0637 9.91241 9.91242 15.0636 3.46541 15.514C4.93226 18.4955 8.00069 20.546 11.546 20.546C16.5166 20.546 20.546 16.5166 20.546 11.546C20.546 8.0007 18.4955 4.93229 15.5141 3.46542Z"/>
</svg>
