<svg xmlns="http://www.w3.org/2000/svg" viewBox="0 0 1048.58 1007.06"><defs><style>.a,.b{fill:none;stroke-miterlimit:10;}.a{stroke-width:25.88px;}.b{stroke-width:24.1px;}</style></defs><path class="a" d="M1284.47,807.2,872.14,905.05a54.06,54.06,0,0,1-65.09-40.12h0a54.07,54.07,0,0,1,40.12-65.1L1259.5,702" transform="translate(-273.92 -27.44)"/><polyline class="a" points="532.68 837.59 374.33 171.06 164.52 171.06"/><circle cx="647.91" cy="955.76" r="51.3"/><circle cx="997.28" cy="869.8" r="51.3"/><line class="b" x1="63.77" y1="287.51" x2="359.54" y2="287.51"/><line class="b" y1="438.17" x2="246.78" y2="438.17"/><line class="b" x1="63.77" y1="592.52" x2="359.54" y2="592.52"/><line class="b" x1="225.52" y1="914.17" x2="561.03" y2="914.17"/><line class="b" x1="225.52" y1="976.09" x2="561.03" y2="976.09"/><rect class="a" x="795.21" y="339.91" width="383.57" height="383.57" transform="translate(-369.35 212.34) rotate(-13.22)"/><rect class="a" x="915.9" y="343.17" width="85.96" height="137.72" transform="translate(-342.73 202.74) rotate(-13.22)"/><rect class="a" x="707.36" y="69.37" width="260.87" height="260.87" transform="translate(-297.41 169.43) rotate(-13.22)"/><rect class="a" x="789.44" y="71.59" width="58.46" height="93.66" transform="translate(-279.31 162.9) rotate(-13.22)"/></svg>
