<svg width="24" height="24" viewBox="0 0 24 24" fill="none" xmlns="http://www.w3.org/2000/svg">
<g clip-path="url(#clip0_732_476)">
<path d="M12.6306 0.223782L12 0.999896L11.3694 0.223782L12 -0.288574L12.6306 0.223782ZM12 2.31769C11.8351 2.46387 11.643 2.63721 11.4299 2.8348C10.6984 3.5129 9.72588 4.47055 8.75636 5.59155C7.78416 6.71566 6.83295 7.9835 6.12903 9.28135C5.42025 10.5882 5 11.8564 5 12.9999C5 17.9865 8.59037 20.9999 12 20.9999C15.4096 20.9999 19 17.9865 19 12.9999C19 11.8564 18.5797 10.5882 17.871 9.28135C17.1671 7.9835 16.2158 6.71566 15.2436 5.59155C14.2741 4.47055 13.3016 3.5129 12.5701 2.8348C12.357 2.63721 12.1649 2.46387 12 2.31769ZM11.3694 0.223782C11.3696 0.223605 11.3694 0.223782 12 0.999896C12.6306 0.223782 12.6304 0.223605 12.6306 0.223782L12.6333 0.225997L12.6389 0.230586L12.6587 0.246803C12.6756 0.260714 12.6998 0.28079 12.731 0.306803C12.7932 0.358822 12.8831 0.434618 12.9965 0.532352C13.2233 0.727755 13.5449 1.01125 13.9299 1.36812C14.6984 2.08064 15.7259 3.09175 16.7564 4.28324C17.7842 5.47164 18.8329 6.86004 19.629 8.32782C20.4203 9.78663 21 11.3934 21 12.9999C21 19.0133 16.5904 22.9999 12 22.9999C7.40963 22.9999 3 19.0133 3 12.9999C3 11.3934 3.57975 9.78663 4.37097 8.32782C5.16705 6.86004 6.21584 5.47164 7.24364 4.28324C8.27412 3.09175 9.30157 2.08064 10.0701 1.36812C10.4551 1.01125 10.7767 0.727755 11.0035 0.532352C11.1169 0.434618 11.2068 0.358822 11.269 0.306803C11.3002 0.28079 11.3244 0.260714 11.3413 0.246803L11.3611 0.230586L11.3667 0.225997L11.3694 0.223782Z" fill="black"/>
</g>
<defs>
<clipPath id="clip0_732_476">
<rect width="24" height="24" fill="white"/>
</clipPath>
</defs>
</svg>
