<svg width="24" height="24" viewBox="0 0 24 24" fill="none" xmlns="http://www.w3.org/2000/svg">
<g clip-path="url(#clip0_2836_15233)">
<path d="M24 0H0V24H24V0Z" fill="white" fill-opacity="0.01"/>
<path fill-rule="evenodd" clip-rule="evenodd" d="M12 2C6.47715 2 2 6.47715 2 12C2 17.5229 6.47715 22 12 22C17.5229 22 22 17.5229 22 12C22 6.47715 17.5229 2 12 2ZM0 12C0 5.3726 5.3726 0 12 0C18.6274 0 24 5.3726 24 12C24 18.6274 18.6274 24 12 24C5.3726 24 0 18.6274 0 12Z" fill="#333333"/>
<path fill-rule="evenodd" clip-rule="evenodd" d="M9.59162 22.7356C9.49492 22.6107 9.49492 21.4984 9.59162 19.3988C8.55572 19.4346 7.90122 19.3627 7.62812 19.1831C7.21852 18.9138 6.80842 18.0831 6.44457 17.4977C6.08072 16.9123 5.27312 16.8198 4.94702 16.6889C4.62091 16.558 4.53905 16.0246 5.84562 16.428C7.15222 16.8315 7.21592 17.9301 7.62812 18.187C8.04032 18.4439 9.02572 18.3315 9.47242 18.1257C9.91907 17.9199 9.88622 17.1537 9.96587 16.8501C10.0666 16.5668 9.71162 16.5039 9.70382 16.5016C9.26777 16.5016 6.97697 16.0034 6.34772 13.7851C5.71852 11.5668 6.52907 10.1168 6.96147 9.4935C7.24972 9.07795 7.22422 8.19235 6.88497 6.8366C8.11677 6.6792 9.06732 7.0669 9.73672 7.9998C9.73737 8.00515 10.6143 7.47835 12.0001 7.47835C13.386 7.47835 13.8777 7.90745 14.2571 7.9998C14.6365 8.09215 14.94 6.3668 17.2834 6.8366C16.7942 7.7982 16.3844 8.9998 16.6972 9.4935C17.0099 9.9872 18.2372 11.5571 17.4833 13.7851C16.9807 15.2704 15.9927 16.1759 14.5192 16.5016C14.3502 16.5555 14.2658 16.6425 14.2658 16.7625C14.2658 16.9426 14.4942 16.9622 14.8233 17.8056C15.0426 18.3679 15.0585 19.9738 14.8708 22.6233C14.3953 22.7443 14.0254 22.8256 13.7611 22.8671C13.2924 22.9408 12.7835 22.9821 12.2834 22.998C11.7834 23.014 11.6098 23.0122 10.9185 22.9478C10.4577 22.9049 10.0154 22.8342 9.59162 22.7356Z" fill="#333333"/>
</g>
<defs>
<clipPath id="clip0_2836_15233">
<rect width="24" height="24" fill="white"/>
</clipPath>
</defs>
</svg>
