<svg width="56" height="55" viewBox="0 0 56 55"  xmlns="http://www.w3.org/2000/svg">
<path d="M27.9999 48.1251C26.4949 46.8143 24.7939 45.4508 22.9949 44.0001H22.9716C16.6366 38.9126 9.45689 33.156 6.28589 26.2581C5.2441 24.062 4.692 21.6727 4.66653 19.2501C4.65957 15.926 6.01702 12.7395 8.43211 10.4106C10.8472 8.08181 14.1161 6.80729 17.4999 6.87514C20.2547 6.87941 22.9502 7.66136 25.2652 9.12784C26.2825 9.77631 27.2029 10.5607 27.9999 11.4585C28.8014 10.5642 29.722 9.7803 30.7369 9.12784C33.0509 7.66107 35.7458 6.87907 38.4999 6.87514C41.8837 6.80729 45.1526 8.08181 47.5677 10.4106C49.9828 12.7395 51.3402 15.926 51.3333 19.2501C51.3094 21.6766 50.7573 24.07 49.7139 26.2695C46.5429 33.1674 39.3656 38.9218 33.0306 44.0001L33.0072 44.0185C31.2059 45.4599 29.5072 46.8235 28.0022 48.1435L27.9999 48.1251ZM17.4999 11.4585C15.3264 11.4318 13.2301 12.2487 11.6666 13.7318C10.1601 15.1851 9.31818 17.1763 9.33303 19.2501C9.35965 21.0159 9.76682 22.756 10.5279 24.356C12.0247 27.3322 14.0445 30.0257 16.4942 32.3126C18.8066 34.6043 21.4666 36.8226 23.7672 38.688C24.4042 39.2037 25.0529 39.7239 25.7016 40.2441L26.1099 40.5718C26.7329 41.0714 27.3769 41.5893 27.9999 42.098L28.0302 42.0705L28.0442 42.0591H28.0582L28.0792 42.043H28.0909H28.1026L28.1446 42.0087L28.2402 41.9331L28.2566 41.9193L28.2822 41.901H28.2962L28.3172 41.8826L29.8666 40.6337L30.2726 40.306C30.9282 39.7812 31.5769 39.261 32.2139 38.7453C34.5146 36.8799 37.1769 34.6639 39.4892 32.3608C41.9393 30.075 43.9591 27.3821 45.4556 24.4064C46.2304 22.7926 46.6434 21.0342 46.6666 19.2501C46.6763 17.1827 45.8348 15.1991 44.3332 13.7501C42.7727 12.2604 40.676 11.4367 38.4999 11.4585C35.8444 11.4363 33.3057 12.5295 31.5232 14.4628L27.9999 18.4503L24.4766 14.4628C22.694 12.5295 20.1554 11.4363 17.4999 11.4585Z" />
</svg>
