<?xml version="1.0" encoding="iso-8859-1"?>
<!-- Uploaded to: SVG Repo, www.svgrepo.com, Generator: SVG Repo Mixer Tools -->
<svg height="800px" width="800px" version="1.1" id="Capa_1" xmlns="http://www.w3.org/2000/svg" xmlns:xlink="http://www.w3.org/1999/xlink"
	 viewBox="0 0 53.736 53.736" xml:space="preserve">
<g>
	<path d="M52.951,43.012L32.108,23.145c3.086-6.662,2.125-13.407-2.632-18.164c-3.354-3.354-8.003-5.178-12.738-4.964
		C11.93,0.218,7.562,2.367,4.438,6.064c-5.673,6.718-5.203,16.835,1.071,23.032c4.379,4.326,10.551,5.762,16.616,3.897l2.395,2.442
		c0.188,0.191,0.445,0.3,0.714,0.3h4.027v3c0,0.553,0.448,1,1,1h3v3c0,0.553,0.448,1,1,1h4v4c0,0.553,0.448,1,1,1h2v1.776
		c0,0.965,0.083,1.503,0.843,2.263c0.556,0.558,1.295,0.897,2.157,0.961h8c0.552,0,1-0.447,1-1v-9
		C53.261,43.462,53.149,43.201,52.951,43.012z M51.261,51.736l-6.923,0.003c-0.309-0.023-0.6-0.157-0.819-0.377
		c-0.258-0.258-0.258-0.258-0.258-0.85v-2.776c0-0.553-0.448-1-1-1h-2v-4c0-0.553-0.448-1-1-1h-4v-3c0-0.553-0.448-1-1-1h-3v-3
		c0-0.553-0.448-1-1-1h-4.607l-2.534-2.585c-0.269-0.275-0.674-0.371-1.039-0.245c-5.525,1.9-11.194,0.692-15.166-3.231
		C1.379,22.204,0.962,13.28,5.966,7.355c2.759-3.266,6.614-5.162,10.855-5.34c4.189-0.171,8.281,1.421,11.24,4.38
		c4.339,4.34,5.045,10.361,1.936,16.521c-0.199,0.393-0.116,0.87,0.203,1.174l21.06,20.075V51.736z"/>
	<path d="M8.97,8.516c-1.133,1.134-1.757,2.641-1.757,4.243s0.624,3.109,1.757,4.242c1.133,1.134,2.64,1.758,4.243,1.758
		s3.109-0.624,4.243-1.758c1.133-1.133,1.757-2.64,1.757-4.242s-0.624-3.109-1.757-4.243C15.116,6.176,11.309,6.176,8.97,8.516z
		 M16.041,15.587c-1.512,1.512-4.146,1.512-5.657,0c-0.755-0.756-1.171-1.76-1.171-2.828s0.416-2.073,1.171-2.829
		c0.78-0.779,1.804-1.169,2.829-1.169s2.049,0.39,2.829,1.169c0.755,0.756,1.171,1.761,1.171,2.829S16.797,14.831,16.041,15.587z"/>
</g>
</svg>
