<svg width="24" height="24" viewBox="0 0 24 24" fill="none" xmlns="http://www.w3.org/2000/svg">
<g clip-path="url(#clip0_732_474)">
<path d="M12 0.5C12.5523 0.5 13 0.947715 13 1.5V2.5C13 3.05228 12.5523 3.5 12 3.5C11.4477 3.5 11 3.05228 11 2.5V1.5C11 0.947715 11.4477 0.5 12 0.5ZM12 20.5C12.5523 20.5 13 20.9477 13 21.5V22.5C13 23.0523 12.5523 23.5 12 23.5C11.4477 23.5 11 23.0523 11 22.5V21.5C11 20.9477 11.4477 20.5 12 20.5ZM12 6C8.68629 6 6 8.68629 6 12C6 15.3137 8.68629 18 12 18C15.3137 18 18 15.3137 18 12C18 8.68629 15.3137 6 12 6ZM4 12C4 7.58172 7.58172 4 12 4C16.4183 4 20 7.58172 20 12C20 16.4183 16.4183 20 12 20C7.58172 20 4 16.4183 4 12ZM19.4246 5.98965L20.1317 5.28255C20.5222 4.89202 20.5222 4.25886 20.1317 3.86833C19.7411 3.47781 19.108 3.47781 18.7175 3.86833L18.0103 4.57544C17.6198 4.96596 17.6198 5.59913 18.0103 5.98965C18.4009 6.38018 19.034 6.38018 19.4246 5.98965ZM5.28242 20.1318L5.98953 19.4247C6.38006 19.0342 6.38006 18.401 5.98953 18.0105C5.59901 17.6199 4.96584 17.6199 4.57532 18.0105L3.86821 18.7176C3.47769 19.1081 3.47769 19.7413 3.86821 20.1318C4.25874 20.5223 4.8919 20.5223 5.28242 20.1318ZM23.5 12C23.5 12.5523 23.0523 13 22.5 13H21.5C20.9477 13 20.5 12.5523 20.5 12C20.5 11.4477 20.9477 11 21.5 11H22.5C23.0523 11 23.5 11.4477 23.5 12ZM3.5 12C3.5 12.5523 3.05228 13 2.5 13H1.5C0.947716 13 0.5 12.5523 0.5 12C0.5 11.4477 0.947716 11 1.5 11H2.5C3.05228 11 3.5 11.4477 3.5 12ZM18.0103 19.4246L18.7175 20.1317C19.108 20.5222 19.7411 20.5222 20.1317 20.1317C20.5222 19.7411 20.5222 19.108 20.1317 18.7175L19.4246 18.0103C19.034 17.6198 18.4009 17.6198 18.0103 18.0103C17.6198 18.4009 17.6198 19.034 18.0103 19.4246ZM4.57532 5.98953C4.96584 6.38005 5.59901 6.38005 5.98953 5.98953C6.38006 5.59901 6.38006 4.96584 5.98953 4.57532L5.28243 3.86821C4.8919 3.47769 4.25874 3.47769 3.86821 3.86821C3.47769 4.25873 3.47769 4.8919 3.86821 5.28242L4.57532 5.98953Z" fill="black"/>
</g>
<defs>
<clipPath id="clip0_732_474">
<rect width="24" height="24" fill="white"/>
</clipPath>
</defs>
</svg>
