<svg width="90" height="90" viewBox="0 0 90 90" fill="none" xmlns="http://www.w3.org/2000/svg">
<path d="M44.7918 0C20.0518 0 0 20.145 0 45C0 68.2744 17.5915 87.4222 40.1457 89.756C38.7836 78.4901 39.2905 69.2716 41.0221 61.6973C40.0507 56.9979 37.8439 50.0389 32.8388 45.0955C32.8388 45.0955 36.1333 50.0601 37.9178 56.7327C37.9178 56.7433 37.9283 56.7539 37.9283 56.7645C38.1184 57.4753 38.2873 58.1966 38.4352 58.9392C38.4668 59.1089 38.4985 59.2786 38.5302 59.459C38.6675 60.2228 38.7942 60.9866 38.8787 61.7716C13.5685 58.6528 8.17275 35.8345 8.76406 27.2313C35.6898 28.727 41.2017 46.7822 42.0041 57.9844C50.821 28.971 78.8343 27.2949 81.1468 27.2313C82.1499 49.5297 65.6882 66.9166 46.0061 68.4335C46.1328 67.8289 46.2806 67.2242 46.4284 66.6301C46.4707 66.4498 46.5234 66.2801 46.5762 66.0997C46.6924 65.6754 46.8085 65.2511 46.9458 64.8267C46.9986 64.6464 47.062 64.4555 47.1148 64.2751C47.2626 63.8083 47.421 63.3522 47.5794 62.8854C47.6216 62.7794 47.6533 62.6733 47.6955 62.5672C47.8961 62.0156 48.1073 61.4852 48.3185 60.9547C48.3396 60.9123 48.3502 60.8593 48.3713 60.8168C48.3713 60.8168 48.3713 60.8168 48.3819 60.8168C53.4291 48.5538 62.7422 40.5233 62.7422 40.5233C44.4644 51.1315 41.3812 78.7129 40.8954 89.7985C42.1837 89.9151 43.4719 90 44.7918 90C69.5318 90 89.5835 69.855 89.5835 45C89.5835 20.145 69.5318 0 44.7918 0Z" fill="#46A358"/>
</svg>
