<svg width="24" height="24" viewBox="0 0 24 24" fill="none" xmlns="http://www.w3.org/2000/svg">
<g clip-path="url(#clip0_732_558)">
<path d="M20.4289 0.00258097C20.9687 -0.0359745 21.4412 0.361849 21.4952 0.9003C21.6452 2.39714 21.3794 4.80402 19.9433 6.67204C18.5817 8.44303 16.3101 9.55171 12.8846 9.165C12.8828 9.3002 12.8818 9.43311 12.8823 9.56386C12.8829 9.71855 12.8857 9.86405 12.8911 10H20.0001C20.2966 10 20.5779 10.1316 20.7679 10.3593C20.9578 10.5869 21.037 10.8872 20.984 11.1789L18.984 22.1789C18.8975 22.6544 18.4834 23 18.0001 23H6.0001C5.51681 23 5.10268 22.6544 5.01623 22.1789L3.01623 11.1789C2.96318 10.8872 3.04235 10.5869 3.23235 10.3593C3.42234 10.1316 3.70358 10 4.0001 10H10.86C10.8065 9.69423 10.7402 9.37631 10.6602 9.05159C8.07268 9.17289 6.26581 8.75545 5.03402 7.7858C3.65825 6.7028 3.23767 5.11468 3.01182 3.65271C2.93444 3.15179 3.24408 2.67218 3.73245 2.53652C6.59875 1.74033 8.60554 1.85059 10.016 3.048C10.6365 3.57476 11.0646 4.25294 11.3968 4.97031C11.7046 4.10126 12.1849 3.2891 12.9166 2.57953C14.4261 1.11578 16.8325 0.259471 20.4289 0.00258097ZM12.0198 12C12.0061 12.0003 11.9923 12.0003 11.9786 12H5.19831L6.83467 21H17.1655L18.8019 12H12.0198ZM12.9558 7.15981C15.9045 7.53657 17.4844 6.58895 18.3577 5.45304C19.1281 4.451 19.4534 3.16794 19.5196 2.09528C16.7783 2.41404 15.2142 3.13744 14.3089 4.01533C13.49 4.80942 13.0946 5.84324 12.9558 7.15981ZM6.2711 6.21429C6.9088 6.71628 8.01876 7.1045 10.0653 7.06997C9.92916 6.66077 9.79339 6.28897 9.6449 5.95048C9.36286 5.30752 9.06846 4.86706 8.7217 4.57269C8.17044 4.10471 7.21993 3.7967 5.16145 4.24145C5.37823 5.13002 5.70426 5.76808 6.2711 6.21429Z" fill="black"/>
</g>
<defs>
<clipPath id="clip0_732_558">
<rect width="24" height="24" fill="white"/>
</clipPath>
</defs>
</svg>
