<svg width="24" height="24" viewBox="0 0 24 24" xmlns="http://www.w3.org/2000/svg">
<path d="M10.54 21.94C10.31 21.94 10.09 21.84 9.94003 21.64L8.93002 20.29C8.72002 20.01 8.44005 19.85 8.14005 19.83C7.83005 19.81 7.54002 19.95 7.30002 20.2C5.85002 21.75 4.75003 21.62 4.22003 21.42C3.68003 21.21 2.77002 20.52 2.77002 18.3V7.04001C2.77002 2.60001 4.05002 1.25 8.24002 1.25H15.79C19.98 1.25 21.26 2.60001 21.26 7.04001V11.3C21.26 11.71 20.92 12.05 20.51 12.05C20.1 12.05 19.76 11.71 19.76 11.3V7.04001C19.76 3.43001 19.13 2.75 15.79 2.75H8.24002C4.90002 2.75 4.27002 3.43001 4.27002 7.04001V18.3C4.27002 19.35 4.53002 19.93 4.77002 20.02C4.95002 20.09 5.44004 19.99 6.20004 19.18C6.75004 18.6 7.47003 18.29 8.22003 18.33C8.96003 18.37 9.66004 18.76 10.13 19.39L11.15 20.74C11.4 21.07 11.33 21.54 11 21.79C10.85 21.9 10.69 21.94 10.54 21.94Z"/>
<path d="M16 7.75H8C7.59 7.75 7.25 7.41 7.25 7C7.25 6.59 7.59 6.25 8 6.25H16C16.41 6.25 16.75 6.59 16.75 7C16.75 7.41 16.41 7.75 16 7.75Z"/>
<path d="M15 11.75H9C8.59 11.75 8.25 11.41 8.25 11C8.25 10.59 8.59 10.25 9 10.25H15C15.41 10.25 15.75 10.59 15.75 11C15.75 11.41 15.41 11.75 15 11.75Z"/>
<path d="M14.8201 21.7801C14.4401 21.7801 14.0801 21.6401 13.8201 21.3801C13.5101 21.0701 13.3701 20.6201 13.4401 20.1501L13.6301 18.8001C13.6801 18.4501 13.8901 18.0301 14.1401 17.7801L17.68 14.2401C18.16 13.7601 18.6301 13.5101 19.1401 13.4601C19.7601 13.4001 20.38 13.6601 20.96 14.2401C21.54 14.8201 21.8 15.4301 21.74 16.0601C21.69 16.5601 21.43 17.0401 20.96 17.5201L17.4201 21.0601C17.1701 21.3101 16.75 21.5201 16.4 21.5701L15.05 21.7601C14.97 21.7701 14.9001 21.7801 14.8201 21.7801ZM19.31 14.9501C19.3 14.9501 19.29 14.9501 19.28 14.9501C19.14 14.9601 18.95 15.0901 18.74 15.3001L15.2001 18.8401C15.1701 18.8701 15.12 18.9701 15.12 19.0101L14.9401 20.2601L16.1901 20.0801C16.2301 20.0701 16.33 20.0201 16.36 19.9901L19.9 16.4501C20.11 16.2301 20.24 16.0501 20.2501 15.9101C20.2701 15.7101 20.07 15.4701 19.9 15.3001C19.74 15.1401 19.51 14.9501 19.31 14.9501Z"/>
<path d="M19.9201 18.2499C19.8501 18.2499 19.7801 18.2399 19.7201 18.2199C18.4001 17.8499 17.3501 16.7999 16.9801 15.4799C16.8701 15.0799 17.1001 14.6699 17.5001 14.5499C17.9001 14.4399 18.3101 14.6699 18.4201 15.0699C18.6501 15.8899 19.3001 16.5399 20.1201 16.7699C20.5201 16.8799 20.7501 17.2999 20.6401 17.6999C20.5501 18.0299 20.2501 18.2499 19.9201 18.2499Z"/>
</svg>
