<svg width="24" height="24" viewBox="0 0 24 24" xmlns="http://www.w3.org/2000/svg">
<path d="M13.0008 14.75H12.0008C11.5908 14.75 11.2508 14.41 11.2508 14C11.2508 13.59 11.5908 13.25 12.0008 13.25H13.0008C13.6908 13.25 14.2508 12.69 14.2508 12V2.75H6.00075C4.82075 2.75 3.74073 3.38998 3.16073 4.41998C2.96073 4.77998 2.50077 4.91002 2.14077 4.71002C1.78077 4.51002 1.65073 4.05 1.85073 3.69C2.69073 2.19 4.28075 1.25 6.00075 1.25H15.0008C15.4108 1.25 15.7508 1.59 15.7508 2V12C15.7508 13.52 14.5208 14.75 13.0008 14.75Z"/>
<path d="M19.001 20.75H18.001C17.591 20.75 17.251 20.41 17.251 20C17.251 19.31 16.691 18.75 16.001 18.75C15.311 18.75 14.751 19.31 14.751 20C14.751 20.41 14.411 20.75 14.001 20.75H10.001C9.59098 20.75 9.25098 20.41 9.25098 20C9.25098 19.31 8.69098 18.75 8.00098 18.75C7.31098 18.75 6.75098 19.31 6.75098 20C6.75098 20.41 6.41098 20.75 6.00098 20.75H5.00098C2.93098 20.75 1.25098 19.07 1.25098 17C1.25098 16.59 1.59098 16.25 2.00098 16.25C2.41098 16.25 2.75098 16.59 2.75098 17C2.75098 18.24 3.76098 19.25 5.00098 19.25H5.35095C5.68095 18.1 6.74098 17.25 8.00098 17.25C9.26098 17.25 10.321 18.1 10.651 19.25H13.361C13.691 18.1 14.751 17.25 16.011 17.25C17.271 17.25 18.3309 18.1 18.6609 19.25H19.001C20.241 19.25 21.251 18.24 21.251 17V14.75H19.001C18.041 14.75 17.251 13.96 17.251 13V10C17.251 9.04 18.031 8.25 19.001 8.25L17.931 6.38C17.711 5.99 17.291 5.75 16.841 5.75H15.751V12C15.751 13.52 14.521 14.75 13.001 14.75H12.001C11.591 14.75 11.251 14.41 11.251 14C11.251 13.59 11.591 13.25 12.001 13.25H13.001C13.691 13.25 14.251 12.69 14.251 12V5C14.251 4.59 14.591 4.25 15.001 4.25H16.841C17.831 4.25 18.741 4.78001 19.231 5.64001L20.941 8.63C21.071 8.86 21.071 9.15 20.941 9.38C20.811 9.61 20.561 9.75 20.291 9.75H19.001C18.861 9.75 18.751 9.86 18.751 10V13C18.751 13.14 18.861 13.25 19.001 13.25H22.001C22.411 13.25 22.751 13.59 22.751 14V17C22.751 19.07 21.071 20.75 19.001 20.75Z"/>
<path d="M8.00098 22.75C6.48098 22.75 5.25098 21.52 5.25098 20C5.25098 18.48 6.48098 17.25 8.00098 17.25C9.52098 17.25 10.751 18.48 10.751 20C10.751 21.52 9.52098 22.75 8.00098 22.75ZM8.00098 18.75C7.31098 18.75 6.75098 19.31 6.75098 20C6.75098 20.69 7.31098 21.25 8.00098 21.25C8.69098 21.25 9.25098 20.69 9.25098 20C9.25098 19.31 8.69098 18.75 8.00098 18.75Z"/>
<path d="M16.001 22.75C14.481 22.75 13.251 21.52 13.251 20C13.251 18.48 14.481 17.25 16.001 17.25C17.521 17.25 18.751 18.48 18.751 20C18.751 21.52 17.521 22.75 16.001 22.75ZM16.001 18.75C15.311 18.75 14.751 19.31 14.751 20C14.751 20.69 15.311 21.25 16.001 21.25C16.691 21.25 17.251 20.69 17.251 20C17.251 19.31 16.691 18.75 16.001 18.75Z"/>
<path d="M22.001 14.75H19.001C18.041 14.75 17.251 13.96 17.251 13V10C17.251 9.04 18.041 8.25 19.001 8.25H20.291C20.561 8.25 20.811 8.39 20.941 8.63L22.651 11.63C22.711 11.74 22.751 11.87 22.751 12V14C22.751 14.41 22.411 14.75 22.001 14.75ZM19.001 9.75C18.861 9.75 18.751 9.86 18.751 10V13C18.751 13.14 18.861 13.25 19.001 13.25H21.251V12.2L19.851 9.75H19.001Z"/>
<path d="M8.00098 8.75H2.00098C1.59098 8.75 1.25098 8.41 1.25098 8C1.25098 7.59 1.59098 7.25 2.00098 7.25H8.00098C8.41098 7.25 8.75098 7.59 8.75098 8C8.75098 8.41 8.41098 8.75 8.00098 8.75Z"/>
<path d="M6.00098 11.75H2.00098C1.59098 11.75 1.25098 11.41 1.25098 11C1.25098 10.59 1.59098 10.25 2.00098 10.25H6.00098C6.41098 10.25 6.75098 10.59 6.75098 11C6.75098 11.41 6.41098 11.75 6.00098 11.75Z"/>
<path d="M4.00098 14.75H2.00098C1.59098 14.75 1.25098 14.41 1.25098 14C1.25098 13.59 1.59098 13.25 2.00098 13.25H4.00098C4.41098 13.25 4.75098 13.59 4.75098 14C4.75098 14.41 4.41098 14.75 4.00098 14.75Z"/>
</svg>
